<?xml version="1.0" standalone="no"?>
<!DOCTYPE svg PUBLIC "-//W3C//DTD SVG 20010904//EN"
 "http://www.w3.org/TR/2001/REC-SVG-20010904/DTD/svg10.dtd">
<svg version="1.0" xmlns="http://www.w3.org/2000/svg"
 width="1366.000000pt" height="768.000000pt" viewBox="0 0 1366.000000 768.000000"
 preserveAspectRatio="xMidYMid meet">

<g transform="translate(0.000000,768.000000) scale(0.100000,-0.100000)"
fill="#000000" stroke="none">
<path d="M0 3840 l0 -3840 6830 0 6830 0 0 3840 0 3840 -6830 0 -6830 0 0
-3840z m3812 2963 c23 -21 23 -36 -1 -57 -42 -38 -86 18 -45 58 19 20 23 20
46 -1z m206 -25 c17 -17 15 -74 -4 -92 -18 -19 -65 -21 -82 -4 -17 17 -15 68
5 90 18 20 63 24 81 6z m-326 -197 c51 -22 83 -54 74 -76 -4 -10 -2 -14 6 -9
17 10 0 -48 -18 -62 -7 -6 -14 -16 -14 -22 0 -6 -9 -14 -20 -17 -11 -3 -20
-11 -20 -17 0 -6 -9 -8 -20 -5 -10 3 -20 1 -22 -4 -5 -15 -118 -30 -168 -23
-51 7 -100 29 -100 45 0 6 -3 8 -7 6 -5 -3 -14 1 -21 9 -7 8 -10 14 -7 14 3 0
-2 12 -12 27 -13 19 -14 28 -5 31 6 2 12 11 12 21 0 22 46 66 85 82 72 29 189
30 257 0z m4864 -238 c42 -41 47 -43 104 -43 33 0 60 -4 60 -10 0 -5 -5 -10
-11 -10 -8 0 -8 -5 1 -15 9 -10 9 -15 1 -15 -18 0 -13 -18 7 -23 9 -3 -13 -5
-50 -6 -62 -1 -68 -3 -88 -30 -11 -17 -29 -33 -40 -36 -18 -6 -20 -15 -20 -86
l0 -79 -35 0 -35 0 0 75 c0 71 -2 76 -25 87 -14 6 -31 21 -39 33 -11 16 -28
24 -67 28 -55 7 -70 19 -65 52 2 17 12 21 55 23 42 3 54 8 68 28 9 14 29 32
44 40 28 14 29 18 29 84 0 68 0 69 28 72 27 3 27 2 30 -62 3 -62 5 -66 48
-107z m1814 142 c10 -12 10 -18 0 -30 -16 -20 -36 -19 -44 1 -6 16 9 44 24 44
4 0 13 -7 20 -15z m1120 -70 c87 -45 58 -149 -55 -201 -93 -44 -213 -25 -243
38 -24 51 32 132 113 162 53 19 149 20 185 1z m-8490 -425 c0 -11 -6 -20 -13
-20 -19 0 -27 10 -20 26 8 21 33 17 33 -6z m6098 -92 c31 -26 -2 -108 -43
-108 -21 0 -65 45 -65 65 0 9 11 27 25 41 26 25 52 26 83 2z m-6410 -174 c2
-12 -4 -24 -12 -27 -19 -7 -40 18 -32 39 8 22 40 13 44 -12z m8576 -19 c22
-22 29 -52 16 -74 -33 -63 -120 -42 -120 28 0 48 70 79 104 46z m386 -255 c0
-21 -24 -28 -35 -10 -8 14 3 30 21 30 8 0 14 -9 14 -20z m-7554 -447 c15 -21
1 -43 -27 -43 -24 0 -35 20 -18 31 8 5 10 9 6 9 -12 0 3 20 15 20 6 0 17 -8
24 -17z m3049 -78 c174 -36 285 -75 465 -165 241 -120 400 -147 702 -120 716
65 1098 -88 1039 -416 -54 -297 -516 -729 -1198 -1118 -179 -102 -590 -306
-750 -373 -62 -26 -109 -51 -106 -56 4 -6 1 -7 -6 -2 -13 8 -111 -32 -111 -46
0 -4 -9 -5 -20 -2 -24 6 -26 0 -3 -18 9 -8 14 -9 11 -4 -3 6 5 11 18 11 13 1
24 0 24 -1 0 -14 -536 -202 -825 -290 -251 -76 -659 -156 -974 -191 -210 -23
-574 -15 -703 15 -407 94 -520 322 -324 651 110 183 343 413 640 630 170 124
274 271 366 517 47 125 120 266 194 373 76 111 282 314 396 389 115 77 267
154 287 147 9 -4 11 -2 7 5 -4 7 -1 10 7 7 8 -3 13 -10 12 -16 -2 -6 4 -9 12
-5 12 4 13 9 5 18 -8 10 -5 15 12 21 13 5 28 9 33 10 6 0 23 6 39 13 16 6 31
9 34 6 3 -3 -1 -5 -8 -5 -10 0 -11 -3 -3 -11 8 -8 21 -8 45 -1 44 14 182 40
238 46 96 9 366 -3 445 -19z m-675 -5 c0 -5 -2 -10 -4 -10 -3 0 -8 5 -11 10
-3 6 -1 10 4 10 6 0 11 -4 11 -10z m-2146 -78 c30 -57 41 -145 27 -219 -14
-82 -40 -155 -52 -147 -5 3 -6 -3 -2 -12 5 -13 3 -15 -7 -9 -8 5 -11 4 -6 -3
7 -12 -13 -62 -26 -62 -4 0 -8 -6 -8 -14 0 -7 -7 -20 -17 -27 -15 -13 -15 -12
-5 6 9 18 7 21 -16 22 -15 0 -19 -1 -9 -4 19 -5 19 -5 11 -27 -3 -9 -10 -16
-16 -16 -5 0 -7 4 -4 8 2 4 -11 6 -31 4 -23 -3 -33 -1 -29 6 3 6 2 13 -4 17
-5 3 -10 1 -10 -4 0 -16 -46 -13 -63 4 -8 8 -17 12 -20 9 -6 -6 -87 43 -87 52
0 3 5 2 12 -2 7 -4 8 -3 4 4 -4 7 -14 12 -22 12 -8 0 -14 7 -14 16 0 8 -4 13
-9 9 -12 -7 -32 53 -26 80 2 11 4 24 4 28 1 5 5 6 10 3 5 -4 7 4 3 16 -5 21
-4 22 13 8 17 -14 17 -14 8 5 -9 15 -8 25 3 40 12 15 14 16 14 3 0 -9 -5 -19
-10 -21 -6 -3 -5 -4 2 -3 7 1 14 12 16 24 2 12 8 22 14 22 6 0 8 3 4 7 -11 12
55 72 73 66 9 -4 13 -2 9 2 -15 16 83 68 222 118 26 9 29 8 44 -21z m-684 -96
c0 -2 3 -11 6 -19 9 -23 -24 -49 -47 -37 -22 12 -25 30 -7 48 11 11 48 17 48
8z m-44 -131 c4 -8 3 -23 0 -32 -6 -15 -8 -15 -16 -3 -8 13 -10 12 -10 -2 0
-11 -5 -15 -15 -12 -29 12 -11 64 22 64 8 0 16 -7 19 -15z m393 -369 c18 -22
2 -48 -27 -44 -31 4 -38 20 -17 42 20 20 29 20 44 2z m-547 -722 c22 -4 35
-11 31 -17 -3 -5 -1 -7 5 -4 15 10 42 -3 42 -18 0 -8 4 -17 10 -20 6 -4 7 1 4
12 -5 14 -4 15 4 4 7 -10 7 -21 0 -35 -10 -19 -10 -20 7 -6 16 13 18 13 13 0
-7 -21 -61 -50 -101 -54 -19 -2 -38 -6 -44 -9 -17 -11 -150 2 -192 19 -45 18
-49 25 -26 48 8 8 15 19 15 24 0 9 75 45 115 55 30 7 76 7 117 1z m7402 -246
c6 -8 16 -13 22 -11 6 2 14 -7 16 -21 6 -31 -13 -50 -72 -71 -57 -20 -130 -6
-160 32 -20 25 -17 53 5 53 7 0 16 7 19 16 3 8 10 12 16 9 5 -3 10 -1 10 6 0
17 131 5 144 -13z m-6229 -67 c-3 -5 0 -13 6 -16 7 -5 -1 -19 -22 -41 -18 -18
-36 -31 -41 -28 -5 3 -7 1 -6 -4 2 -5 -28 -46 -65 -90 -133 -156 -220 -305
-247 -421 -18 -75 -9 -187 20 -243 47 -95 149 -172 293 -222 99 -34 192 -51
359 -66 76 -7 135 -16 133 -20 -3 -4 5 -11 18 -16 41 -14 -61 -17 -188 -4
-343 33 -565 138 -650 307 -35 68 -45 180 -25 272 17 80 88 222 160 320 69 93
292 330 255 272z m6749 -70 c70 -17 56 -26 -33 -23 -58 3 -109 -1 -150 -12
-35 -9 -67 -13 -72 -10 -5 3 -8 1 -7 -5 4 -13 -70 -51 -87 -45 -7 3 -16 1 -20
-5 -4 -7 1 -8 12 -4 17 6 17 5 -1 -15 -10 -12 -22 -19 -27 -17 -4 3 -11 0 -15
-6 -5 -8 -3 -9 6 -4 8 5 11 3 8 -6 -3 -8 -9 -13 -14 -12 -14 2 -16 -94 -4
-133 6 -19 21 -41 33 -49 12 -8 18 -15 14 -15 -15 0 -76 46 -96 72 -12 14 -25
38 -31 54 -13 33 -5 78 12 68 7 -4 8 -3 4 4 -9 15 11 52 27 48 6 -1 9 -1 5 1
-15 9 -8 25 8 19 8 -3 12 -2 9 4 -8 13 74 64 128 80 51 14 93 10 89 -8 -1 -8
2 -11 7 -7 6 3 8 12 4 20 -4 12 8 15 73 15 44 0 96 -5 118 -9z m113 -44 c4 -7
0 -8 -11 -4 -10 4 -22 7 -27 7 -5 0 -9 4 -9 9 0 12 38 2 47 -12z m-427 -717
c42 -42 14 -110 -46 -110 -60 0 -83 62 -39 105 29 30 58 32 85 5z m-9742 -193
c4 -20 -25 -34 -40 -19 -15 15 -1 44 19 40 10 -2 19 -11 21 -21z m8189 -23
c-3 -3 -12 -4 -19 -1 -8 3 -5 6 6 6 11 1 17 -2 13 -5z m-137 -13 c0 -11 -76
-21 -115 -15 -23 3 -25 2 -10 -4 16 -7 10 -10 -30 -16 -28 -4 -85 -17 -127
-27 -43 -11 -82 -17 -88 -14 -5 3 -10 1 -10 -4 0 -6 -8 -11 -19 -11 -10 0 -36
-7 -56 -16 -21 -9 -49 -14 -61 -11 -13 2 -21 1 -19 -3 3 -4 -7 -11 -23 -14
-15 -4 -36 -10 -47 -13 -18 -5 -18 -4 -6 11 12 14 12 16 -1 11 -9 -4 -18 1
-22 11 -4 12 -2 15 9 11 8 -4 17 -3 19 2 3 4 30 13 61 20 46 10 59 10 73 -1
15 -12 16 -11 3 5 -11 14 -11 17 0 17 8 0 25 3 39 5 22 5 23 4 5 -5 -18 -9
-18 -9 5 -7 14 1 24 8 23 15 -2 6 2 12 7 12 6 0 10 -6 10 -12 0 -9 3 -9 9 1 5
8 18 12 29 8 12 -2 22 -1 24 3 2 5 62 17 133 28 149 21 185 24 185 13z m-755
-151 c-3 -5 -12 -10 -19 -10 -8 0 -16 -9 -19 -20 -3 -11 -10 -20 -17 -20 -6 0
-8 5 -4 12 4 7 3 8 -5 4 -6 -4 -9 -12 -6 -17 4 -5 -1 -12 -10 -15 -13 -6 -14
-9 -3 -15 9 -7 7 -8 -7 -7 -11 2 -21 -1 -22 -6 -2 -8 -49 -36 -68 -39 -5 -1
-15 -7 -22 -14 -29 -26 -84 -54 -94 -47 -8 4 -9 3 -5 -4 7 -12 -32 -38 -49
-33 -5 1 -7 0 -3 -4 4 -4 -16 -25 -44 -47 -40 -32 -52 -38 -60 -27 -7 10 -8 8
-3 -7 4 -16 -4 -29 -32 -55 -21 -18 -38 -35 -37 -38 2 -13 -54 -80 -61 -73 -5
4 -5 2 -2 -5 4 -6 4 -19 0 -29 -6 -16 -7 -16 -15 2 -7 15 -8 13 -5 -8 3 -17 0
-25 -6 -21 -7 4 -8 0 -4 -12 4 -9 2 -23 -4 -31 -6 -7 -13 -28 -16 -46 -3 -18
-9 -38 -14 -44 -5 -6 -6 -13 -3 -16 3 -3 0 -30 -6 -59 -13 -64 -19 -292 -7
-276 5 7 5 -8 1 -32 -4 -31 -3 -42 5 -37 7 5 11 -3 11 -21 0 -15 3 -39 7 -51
5 -20 3 -23 -17 -20 -18 2 -27 15 -42 57 -10 30 -15 64 -12 74 4 12 2 17 -4
13 -23 -14 -33 167 -20 353 4 51 10 96 13 99 3 3 5 -1 5 -9 0 -8 7 -1 15 15 8
15 15 36 15 45 -1 9 -7 3 -15 -14 -7 -16 -14 -27 -14 -23 -1 11 31 92 39 98 4
3 9 13 13 23 4 10 11 16 16 12 5 -3 13 0 17 6 4 8 3 9 -4 5 -7 -4 -12 -2 -12
3 0 6 5 11 12 11 6 0 8 3 5 7 -9 8 33 54 43 48 4 -3 7 3 6 13 0 9 5 16 12 14
8 -1 11 2 8 7 -7 11 64 72 76 65 4 -3 7 0 6 7 -4 16 120 101 135 93 7 -4 9 -3
4 1 -13 15 95 75 123 69 19 -4 22 -3 10 5 -15 10 15 26 145 76 69 27 78 29 70
15z m164 -164 c27 -56 -30 -111 -87 -84 -21 10 -28 21 -30 51 -4 52 12 69 62
65 34 -2 43 -8 55 -32z m-6097 -487 c19 -24 19 -28 4 -56 -18 -36 -50 -47 -85
-30 -59 29 -34 122 32 115 18 -2 37 -13 49 -29z m6352 -91 c21 -29 20 -57 -1
-80 -22 -24 -58 -23 -83 4 -26 28 -25 52 2 78 29 26 63 26 82 -2z m-7198 -129
c13 -12 27 -31 30 -43 4 -11 13 -26 21 -34 21 -22 12 -45 -27 -64 -60 -30
-165 1 -205 60 -29 42 -24 51 44 88 54 28 102 26 137 -7z"/>
<path d="M3400 6550 c-9 -6 -10 -10 -3 -10 6 0 15 5 18 10 8 12 4 12 -15 0z"/>
<path d="M6375 4890 c-4 -6 -12 -7 -18 -4 -8 5 -9 4 -2 -4 12 -13 58 -4 49 9
-7 12 -21 11 -29 -1z"/>
<path d="M6783 4663 c9 -2 23 -2 30 0 6 3 -1 5 -18 5 -16 0 -22 -2 -12 -5z"/>
<path d="M7164 4606 c-10 -22 -20 -24 -94 -12 -91 14 -249 25 -287 20 -225
-31 -336 -63 -488 -143 -324 -169 -551 -481 -620 -850 -30 -166 -16 -388 36
-551 36 -112 46 -127 108 -157 55 -28 58 -28 246 -28 218 1 312 15 577 91 228
65 445 148 660 254 53 27 99 46 102 42 3 -3 6 0 6 6 0 7 4 12 9 12 5 0 8 -8 6
-17 -1 -10 -8 -17 -14 -16 -6 2 -11 -4 -11 -13 0 -9 5 -13 13 -9 6 4 3 -1 -7
-9 -33 -26 -10 -18 94 34 239 120 472 275 611 408 96 91 139 161 139 225 0 32
-7 46 -37 77 -32 31 -58 44 -155 74 -64 20 -120 41 -123 46 -3 6 -15 14 -25
20 -18 10 -18 9 -4 -17 12 -25 12 -29 -4 -41 -19 -15 -12 -22 -134 133 -62 77
-75 115 -41 115 14 0 -52 65 -100 99 -17 12 -21 12 -32 -2 -16 -22 -24 -21
-68 8 -39 27 -51 65 -19 65 12 0 8 6 -13 20 -22 14 -31 16 -34 7 -9 -28 -23
-37 -42 -26 -23 12 -24 23 -4 42 13 13 9 18 -33 37 -26 13 -83 35 -128 50
l-80 27 -10 -21z m854 -828 c-2 -15 -11 -24 -25 -26 -19 -3 -23 1 -23 22 0 21
5 26 26 26 21 0 25 -4 22 -22z m-54 -74 c25 -10 19 -32 -19 -69 -49 -50 -78
-35 -46 24 27 48 37 56 65 45z m-183 -205 c13 -26 6 -33 -123 -123 -82 -56
-128 -79 -128 -62 0 2 -3 11 -6 19 -4 11 20 33 83 76 48 33 102 71 118 85 37
31 41 31 56 5z"/>
<path d="M7068 2593 c7 -3 16 -2 19 1 4 3 -2 6 -13 5 -11 0 -14 -3 -6 -6z"/>
<path d="M4336 4725 c-9 -26 -7 -32 5 -12 6 10 9 21 6 23 -2 3 -7 -2 -11 -11z"/>
<path d="M4165 4709 c-4 -6 -5 -12 -2 -15 2 -3 7 2 10 11 7 17 1 20 -8 4z"/>
<path d="M4330 4671 c0 -6 4 -13 10 -16 6 -3 7 1 4 9 -7 18 -14 21 -14 7z"/>
<path d="M4160 4648 c0 -9 7 -19 16 -22 15 -6 15 -4 3 11 -7 10 -15 20 -16 22
-2 2 -3 -3 -3 -11z"/>
<path d="M4120 4619 c0 -5 5 -7 10 -4 6 3 10 8 10 11 0 2 -4 4 -10 4 -5 0 -10
-5 -10 -11z"/>
<path d="M4007 4409 c7 -7 15 -10 18 -7 3 3 -2 9 -12 12 -14 6 -15 5 -6 -5z"/>
<path d="M3375 3390 c-3 -5 -1 -10 4 -10 6 0 11 5 11 10 0 6 -2 10 -4 10 -3 0
-8 -4 -11 -10z"/>
<path d="M10819 3242 c-13 -15 -12 -16 3 -4 13 10 17 10 21 0 4 -9 6 -9 6 -1
2 20 -16 24 -30 5z"/>
<path d="M4596 3191 c-4 -5 -2 -12 3 -15 5 -4 12 -2 15 3 4 5 2 12 -3 15 -5 4
-12 2 -15 -3z"/>
<path d="M11100 3121 c0 -5 7 -12 16 -15 14 -5 15 -4 4 9 -14 17 -20 19 -20 6z"/>
<path d="M11010 3090 c0 -5 5 -10 10 -10 6 0 10 5 10 10 0 6 -4 10 -10 10 -5
0 -10 -4 -10 -10z"/>
<path d="M10960 3030 c-9 -6 -10 -10 -3 -10 6 0 15 5 18 10 8 12 4 12 -15 0z"/>
<path d="M10893 2911 c0 -11 5 -18 9 -15 4 3 5 11 1 19 -7 21 -12 19 -10 -4z"/>
<path d="M8441 1906 c-8 -10 -9 -16 -1 -21 5 -3 10 0 10 9 0 8 6 17 13 19 7 4
8 6 1 6 -6 1 -17 -5 -23 -13z"/>
<path d="M8056 1667 c3 -10 9 -15 12 -12 3 3 0 11 -7 18 -10 9 -11 8 -5 -6z"/>
<path d="M7987 1607 c-3 -8 0 -14 7 -14 7 0 13 6 13 14 0 7 -4 13 -8 13 -4 0
-9 -6 -12 -13z"/>
<path d="M7957 1500 c-7 -28 -6 -32 9 -22 6 4 8 16 4 26 -6 18 -7 18 -13 -4z"/>
<path d="M8976 1263 c6 -4 14 -15 17 -23 5 -11 6 -9 4 4 -1 11 -9 21 -17 23
-10 3 -11 2 -4 -4z"/>
<path d="M8931 1224 c0 -11 3 -14 6 -6 3 7 2 16 -1 19 -3 4 -6 -2 -5 -13z"/>
</g>
</svg>
